<svg version="1.1" viewBox="0 0 381.05 362.58" xmlns="http://www.w3.org/2000/svg">
 <defs>
  <style>.cls-1{fill:#fff;}.cls-2{fill:#e5e5e6;}.cls-3{fill:#253a54;}.cls-4{fill:#223341;}.cls-5{fill:#aeadb3;}.cls-6{fill:#c2c3c9;}.cls-7{fill:#264860;}.cls-8{fill:#13cace;}</style>
 </defs>
 <title>computer</title>
 <g transform="translate(7.0922e-6 7.0922e-6)" data-name="Layer 2">
  <g id="mouse" data-name="mouse computer">
   <path class="cls-1" d="m191.77 235.81c101.25-0.56671 135.81-5.1125 136.23 21v40.44h3v-40.41c0.21741-31.471-43.614-24.107-139.23-24.1" fill="#ffffff"/>
   <path class="cls-1" d="m333 294.58a13.9 13.9 0 0 1 13.9 13.9v33.35a13.89 13.89 0 0 1-13.9 13.89h-3.69v-61.14z" fill="#ffffff"/>
   <path class="cls-2" d="m325.58 294.58h3.71v61.14h-3.71a13.9 13.9 0 0 1-13.9-13.89v-33.35a13.91 13.91 0 0 1 13.9-13.9z" fill="#e5e5e6"/>
   <path class="cls-3" d="m333.92 309.33v3a4.65 4.65 0 0 1-4.63 4.64v-12.27a4.64 4.64 0 0 1 4.63 4.63z" fill="#253a54"/>
   <path class="cls-4" d="m329.29 304.7v12.3a4.64 4.64 0 0 1-4.64-4.64v-3a4.63 4.63 0 0 1 4.64-4.66z" fill="#223341"/>
  </g>
  <g id="screen">
   <path class="cls-6" d="m141.47 230h-22l4.6555-36.82h17.344z" fill="#aeadb3" stroke-width=".71922"/>
   <path class="cls-6" d="m141.47 230h22l-4.6555-36.82h-17.344z" fill="#c2c3c9" stroke-width=".71922"/>
   <path class="cls-1" d="m189.17 229.31h-94.41c-2.4 0-4.34 2.28-4.34 5.09v1.92h103.09v-1.92c0-2.81-1.95-5.09-4.34-5.09z" fill="#ffffff"/>
   <path class="cls-1" d="m0 178.82v20.29a7.06 7.06 0 0 0 7.07 7.06h269.79a7.07 7.07 0 0 0 7.07-7.06v-20.29z" fill="#ffffff"/>
   <path class="cls-7" d="m283.93 178.82v-171.75a7.07 7.07 0 0 0-7.07-7.07h-269.79a7.06 7.06 0 0 0-7.07 7.07v171.75z" fill="#1c3e56"/>
   <rect class="cls-8" x="11.63" y="11.05" width="260.67" height="156.05" fill="#3ce8ec"/>
  </g>
  <g id="keyboard">
   <path class="cls-5" d="m275.47 263.77a3.37 3.37 0 0 0-3.45-3.24h-260.12a3.36 3.36 0 0 0-3.44 3.24v95.58a3.36 3.36 0 0 0 3.44 3.23h260.1a3.36 3.36 0 0 0 3.45-3.23z" fill="#aeadb3"/>
   <path class="cls-6" d="m275.47 359.35v-95.58a3.37 3.37 0 0 0-3.45-3.24h-187.02l134.85 102.05h52.15a3.36 3.36 0 0 0 3.47-3.23z" fill="#c2c3c9"/>
   <rect class="cls-1" x="15.13" y="268.9" width="14.53" height="14.53" rx=".84" fill="#ffffff"/>
   <path class="cls-1" d="m56.3 300.28a0.85 0.85 0 0 1-0.85 0.85h-12.85a0.84 0.84 0 0 1-0.83-0.85v-12.85a0.83 0.83 0 0 1 0.83-0.83h12.85a0.84 0.84 0 0 1 0.85 0.83z" fill="#ffffff"/>
   <path class="cls-1" d="m60.49 318a0.84 0.84 0 0 1-0.84 0.84h-12.86a0.85 0.85 0 0 1-0.79-0.84v-12.87a0.85 0.85 0 0 1 0.84-0.84h12.81a0.85 0.85 0 0 1 0.84 0.84z" fill="#ffffff"/>
   <path class="cls-1" d="m51.82 335.68a0.84 0.84 0 0 1-0.83 0.84h-12.86a0.84 0.84 0 0 1-0.83-0.84v-12.85a0.84 0.84 0 0 1 0.83-0.84h12.87a0.84 0.84 0 0 1 0.83 0.84z" fill="#ffffff"/>
   <path class="cls-1" d="m29.66 355.61a0.85 0.85 0 0 1-0.84 0.84h-12.82a0.84 0.84 0 0 1-0.84-0.84v-15.09a0.85 0.85 0 0 1 0.84-0.84h12.82a0.85 0.85 0 0 1 0.84 0.84z" fill="#ffffff"/>
   <path class="cls-1" d="m47.31 355.61a0.85 0.85 0 0 1-0.85 0.84h-12.84a0.85 0.85 0 0 1-0.84-0.84v-15.09a0.85 0.85 0 0 1 0.84-0.84h12.84a0.85 0.85 0 0 1 0.85 0.84z" fill="#ffffff"/>
   <rect class="cls-1" x="50.43" y="339.68" width="14.53" height="16.77" rx=".84" fill="#ffffff"/>
   <path class="cls-1" d="m215.71 355.61a0.85 0.85 0 0 1-0.84 0.84h-12.87a0.84 0.84 0 0 1-0.83-0.84v-15.09a0.84 0.84 0 0 1 0.83-0.84h12.86a0.85 0.85 0 0 1 0.84 0.84z" fill="#ffffff"/>
   <path class="cls-1" d="m233.4 355.61a0.85 0.85 0 0 1-0.84 0.84h-12.84a0.85 0.85 0 0 1-0.85-0.84v-6.7a0.85 0.85 0 0 1 0.85-0.84h12.84a0.85 0.85 0 0 1 0.84 0.84z" fill="#ffffff"/>
   <path class="cls-1" d="m268.79 355.61a0.84 0.84 0 0 1-0.84 0.84h-12.84a0.85 0.85 0 0 1-0.85-0.84v-6.7a0.85 0.85 0 0 1 0.85-0.84h12.89a0.84 0.84 0 0 1 0.84 0.84z" fill="#ffffff"/>
   <path class="cls-1" d="m87.21 355.61a0.84 0.84 0 0 1-0.83 0.84h-17.47a0.84 0.84 0 0 1-0.83-0.84v-15.09a0.84 0.84 0 0 1 0.83-0.84h17.47a0.84 0.84 0 0 1 0.83 0.84z" fill="#ffffff"/>
   <path class="cls-1" d="m198 355.61a0.85 0.85 0 0 1-0.84 0.84h-17.45a0.85 0.85 0 0 1-0.85-0.84v-15.09a0.86 0.86 0 0 1 0.85-0.84h17.46a0.85 0.85 0 0 1 0.84 0.84z" fill="#ffffff"/>
   <path class="cls-1" d="m175.7 355.61a0.85 0.85 0 0 1-0.84 0.84h-83.64a0.85 0.85 0 0 1-0.84-0.84v-15.09a0.85 0.85 0 0 1 0.84-0.84h83.64a0.85 0.85 0 0 1 0.84 0.84z" fill="#ffffff"/>
   <path class="cls-1" d="m69.52 335.68a0.84 0.84 0 0 1-0.84 0.84h-12.85a0.85 0.85 0 0 1-0.84-0.84v-12.85a0.85 0.85 0 0 1 0.84-0.84h12.85a0.84 0.84 0 0 1 0.84 0.84z" fill="#ffffff"/>
   <rect class="cls-1" x="72.69" y="321.99" width="14.53" height="14.53" rx=".84" fill="#ffffff"/>
   <rect class="cls-1" x="90.38" y="321.99" width="14.54" height="14.53" rx=".84" fill="#ffffff"/>
   <path class="cls-1" d="m122.61 335.68a0.85 0.85 0 0 1-0.84 0.84h-12.85a0.85 0.85 0 0 1-0.84-0.84v-12.85a0.85 0.85 0 0 1 0.84-0.84h12.85a0.85 0.85 0 0 1 0.84 0.84z" fill="#ffffff"/>
   <path class="cls-1" d="m140.31 335.68a0.85 0.85 0 0 1-0.84 0.84h-12.85a0.85 0.85 0 0 1-0.84-0.84v-12.85a0.85 0.85 0 0 1 0.84-0.84h12.85a0.85 0.85 0 0 1 0.84 0.84z" fill="#ffffff"/>
   <path class="cls-1" d="m158 335.68a0.84 0.84 0 0 1-0.83 0.84h-12.86a0.85 0.85 0 0 1-0.84-0.84v-12.85a0.85 0.85 0 0 1 0.84-0.84h12.86a0.84 0.84 0 0 1 0.83 0.84z" fill="#ffffff"/>
   <path class="cls-1" d="m175.7 335.68a0.85 0.85 0 0 1-0.84 0.84h-12.86a0.85 0.85 0 0 1-0.84-0.84v-12.85a0.85 0.85 0 0 1 0.84-0.83h12.85a0.85 0.85 0 0 1 0.84 0.84z" fill="#ffffff"/>
   <rect class="cls-1" x="178.86" y="321.99" width="14.53" height="14.53" rx=".84" fill="#ffffff"/>
   <path class="cls-1" d="m211.09 335.68a0.84 0.84 0 0 1-0.83 0.84h-12.86a0.85 0.85 0 0 1-0.84-0.84v-12.85a0.85 0.85 0 0 1 0.84-0.84h12.86a0.84 0.84 0 0 1 0.83 0.84z" fill="#ffffff"/>
   <rect class="cls-1" x="214.26" y="321.99" width="14.53" height="14.53" rx=".84" fill="#ffffff"/>
   <rect class="cls-1" x="231.96" y="321.99" width="36.7" height="14.53" rx=".84" fill="#ffffff"/>
   <path class="cls-1" d="m64.49 304.29h12.85a0.84 0.84 0 0 1 0.84 0.84v12.87a0.83 0.83 0 0 1-0.83 0.83h-12.86a0.83 0.83 0 0 1-0.83-0.83v-12.87a0.84 0.84 0 0 1 0.83-0.84z" fill="#ffffff"/>
   <path class="cls-1" d="m95.88 318a0.84 0.84 0 0 1-0.84 0.84h-12.85a0.84 0.84 0 0 1-0.84-0.84v-12.87a0.85 0.85 0 0 1 0.84-0.84h12.81a0.85 0.85 0 0 1 0.84 0.84z" fill="#ffffff"/>
   <path class="cls-1" d="m99.88 304.29h12.85a0.84 0.84 0 0 1 0.84 0.84v12.87a0.83 0.83 0 0 1-0.83 0.83h-12.86a0.83 0.83 0 0 1-0.88-0.83v-12.87a0.84 0.84 0 0 1 0.88-0.84z" fill="#ffffff"/>
   <path class="cls-1" d="m117.58 304.29h12.86a0.83 0.83 0 0 1 0.83 0.83v12.88a0.83 0.83 0 0 1-0.83 0.83h-12.86a0.84 0.84 0 0 1-0.84-0.84v-12.86a0.84 0.84 0 0 1 0.84-0.84z" fill="#ffffff"/>
   <path class="cls-1" d="m149 318a0.84 0.84 0 0 1-0.84 0.84h-12.88a0.84 0.84 0 0 1-0.84-0.84v-12.87a0.85 0.85 0 0 1 0.84-0.84h12.85a0.85 0.85 0 0 1 0.84 0.84z" fill="#ffffff"/>
   <path class="cls-1" d="m166.66 318a0.83 0.83 0 0 1-0.83 0.84h-12.83a0.83 0.83 0 0 1-0.84-0.84v-12.87a0.84 0.84 0 0 1 0.84-0.84h12.85a0.84 0.84 0 0 1 0.83 0.84z" fill="#ffffff"/>
   <path class="cls-1" d="m170.67 304.29h12.85a0.84 0.84 0 0 1 0.84 0.84v12.87a0.84 0.84 0 0 1-0.84 0.84h-12.85a0.83 0.83 0 0 1-0.83-0.83v-12.88a0.84 0.84 0 0 1 0.83-0.84z" fill="#ffffff"/>
   <path class="cls-1" d="m188.37 304.29h12.85a0.84 0.84 0 0 1 0.84 0.84v12.87a0.83 0.83 0 0 1-0.83 0.83h-12.86a0.84 0.84 0 0 1-0.84-0.84v-12.86a0.84 0.84 0 0 1 0.84-0.84z" fill="#ffffff"/>
   <path class="cls-1" d="m206.06 304.29h12.86a0.84 0.84 0 0 1 0.84 0.84v12.87a0.83 0.83 0 0 1-0.83 0.83h-12.87a0.84 0.84 0 0 1-0.84-0.84v-12.86a0.84 0.84 0 0 1 0.84-0.84z" fill="#ffffff"/>
   <path class="cls-1" d="m237.45 318a0.84 0.84 0 0 1-0.84 0.84h-12.84a0.84 0.84 0 0 1-0.85-0.84v-12.87a0.85 0.85 0 0 1 0.85-0.84h12.84a0.85 0.85 0 0 1 0.84 0.84z" fill="#ffffff"/>
   <path class="cls-1" d="m255.15 318a0.84 0.84 0 0 1-0.84 0.84h-12.86a0.83 0.83 0 0 1-0.83-0.84v-12.87a0.84 0.84 0 0 1 0.83-0.84h12.86a0.85 0.85 0 0 1 0.84 0.84z" fill="#ffffff"/>
   <path class="cls-1" d="m74 300.28a0.84 0.84 0 0 1-0.84 0.85h-12.86a0.85 0.85 0 0 1-0.84-0.85v-12.85a0.84 0.84 0 0 1 0.84-0.83h12.85a0.83 0.83 0 0 1 0.84 0.83z" fill="#ffffff"/>
   <path class="cls-1" d="m91.69 300.28a0.85 0.85 0 0 1-0.84 0.85h-12.85a0.85 0.85 0 0 1-0.84-0.85v-12.85a0.84 0.84 0 0 1 0.84-0.83h12.85a0.84 0.84 0 0 1 0.84 0.83z" fill="#ffffff"/>
   <path class="cls-1" d="m109.38 300.28a0.84 0.84 0 0 1-0.84 0.85h-12.85a0.85 0.85 0 0 1-0.83-0.85v-12.85a0.83 0.83 0 0 1 0.83-0.83h12.85a0.83 0.83 0 0 1 0.84 0.83z" fill="#ffffff"/>
   <path class="cls-1" d="m127.08 300.28a0.85 0.85 0 0 1-0.84 0.85h-12.85a0.85 0.85 0 0 1-0.84-0.85v-12.85a0.84 0.84 0 0 1 0.84-0.83h12.85a0.84 0.84 0 0 1 0.84 0.83z" fill="#ffffff"/>
   <path class="cls-1" d="m144.78 300.28a0.85 0.85 0 0 1-0.84 0.85h-12.86a0.85 0.85 0 0 1-0.83-0.85v-12.85a0.83 0.83 0 0 1 0.83-0.83h12.86a0.84 0.84 0 0 1 0.84 0.83z" fill="#ffffff"/>
   <path class="cls-1" d="m162.47 300.28a0.84 0.84 0 0 1-0.83 0.85h-12.86a0.85 0.85 0 0 1-0.84-0.85v-12.85a0.84 0.84 0 0 1 0.84-0.83h12.86a0.83 0.83 0 0 1 0.83 0.83z" fill="#ffffff"/>
   <path class="cls-1" d="m180.17 300.28a0.84 0.84 0 0 1-0.84 0.85h-12.85a0.85 0.85 0 0 1-0.84-0.85v-12.85a0.84 0.84 0 0 1 0.84-0.83h12.85a0.83 0.83 0 0 1 0.84 0.83z" fill="#ffffff"/>
   <path class="cls-1" d="m197.87 300.28a0.85 0.85 0 0 1-0.84 0.85h-12.86a0.84 0.84 0 0 1-0.83-0.85v-12.85a0.83 0.83 0 0 1 0.83-0.83h12.83a0.84 0.84 0 0 1 0.84 0.83z" fill="#ffffff"/>
   <path class="cls-1" d="m215.56 300.28a0.85 0.85 0 0 1-0.83 0.85h-12.86a0.84 0.84 0 0 1-0.83-0.85v-12.85a0.83 0.83 0 0 1 0.83-0.83h12.86a0.83 0.83 0 0 1 0.83 0.83z" fill="#ffffff"/>
   <path class="cls-1" d="m233.26 300.28a0.85 0.85 0 0 1-0.84 0.85h-12.85a0.85 0.85 0 0 1-0.84-0.85v-12.85a0.84 0.84 0 0 1 0.84-0.83h12.85a0.84 0.84 0 0 1 0.84 0.83z" fill="#ffffff"/>
   <path class="cls-1" d="m251 300.28a0.84 0.84 0 0 1-0.83 0.85h-12.9a0.84 0.84 0 0 1-0.84-0.85v-12.85a0.83 0.83 0 0 1 0.84-0.83h12.85a0.83 0.83 0 0 1 0.83 0.83z" fill="#ffffff"/>
   <path class="cls-1" d="m38.6 300.28a0.85 0.85 0 0 1-0.84 0.85h-21.76a0.84 0.84 0 0 1-0.84-0.85v-12.85a0.83 0.83 0 0 1 0.84-0.83h21.76a0.84 0.84 0 0 1 0.84 0.83z" fill="#ffffff"/>
   <path class="cls-1" d="m268.65 282.59a0.84 0.84 0 0 1-0.84 0.84h-21.81a0.85 0.85 0 0 1-0.84-0.84v-12.85a0.84 0.84 0 0 1 0.84-0.84h21.79a0.83 0.83 0 0 1 0.84 0.84z" fill="#ffffff"/>
   <path class="cls-1" d="m42.79 318a0.84 0.84 0 0 1-0.84 0.84h-25.95a0.83 0.83 0 0 1-0.84-0.84v-12.87a0.84 0.84 0 0 1 0.84-0.84h26a0.85 0.85 0 0 1 0.84 0.84z" fill="#ffffff"/>
   <rect class="cls-1" x="15.13" y="321.99" width="19" height="14.53" rx=".84" fill="#ffffff"/>
   <rect class="cls-1" x="32.83" y="268.9" width="14.53" height="14.53" rx=".84" fill="#ffffff"/>
   <path class="cls-1" d="m65.05 282.59a0.84 0.84 0 0 1-0.84 0.84h-12.85a0.84 0.84 0 0 1-0.83-0.84v-12.85a0.83 0.83 0 0 1 0.83-0.84h12.85a0.83 0.83 0 0 1 0.84 0.84z" fill="#ffffff"/>
   <path class="cls-1" d="m82.75 282.59a0.85 0.85 0 0 1-0.84 0.84h-12.86a0.84 0.84 0 0 1-0.83-0.84v-12.85a0.83 0.83 0 0 1 0.83-0.84h12.86a0.84 0.84 0 0 1 0.84 0.84z" fill="#ffffff"/>
   <rect class="cls-1" x="85.91" y="268.9" width="14.53" height="14.53" rx=".84" fill="#ffffff"/>
   <path class="cls-1" d="m118.13 282.59a0.84 0.84 0 0 1-0.83 0.84h-12.85a0.85 0.85 0 0 1-0.84-0.84v-12.85a0.84 0.84 0 0 1 0.84-0.84h12.85a0.83 0.83 0 0 1 0.83 0.84z" fill="#ffffff"/>
   <rect class="cls-1" x="121.31" y="268.9" width="14.53" height="14.53" rx=".84" fill="#ffffff"/>
   <path class="cls-1" d="m153.53 282.59a0.84 0.84 0 0 1-0.84 0.84h-12.85a0.85 0.85 0 0 1-0.84-0.84v-12.85a0.84 0.84 0 0 1 0.84-0.84h12.85a0.83 0.83 0 0 1 0.84 0.84z" fill="#ffffff"/>
   <rect class="cls-1" x="156.7" y="268.9" width="14.53" height="14.53" rx=".84" fill="#ffffff"/>
   <path class="cls-1" d="m188.92 282.59a0.84 0.84 0 0 1-0.83 0.84h-12.85a0.84 0.84 0 0 1-0.84-0.84v-12.85a0.83 0.83 0 0 1 0.84-0.84h12.85a0.83 0.83 0 0 1 0.83 0.84z" fill="#ffffff"/>
   <path class="cls-1" d="m206.62 282.59a0.84 0.84 0 0 1-0.83 0.84h-12.86a0.84 0.84 0 0 1-0.83-0.84v-12.85a0.83 0.83 0 0 1 0.83-0.84h12.86a0.84 0.84 0 0 1 0.83 0.84z" fill="#ffffff"/>
   <rect class="cls-1" x="209.79" y="268.9" width="14.54" height="14.53" rx=".84" fill="#ffffff"/>
   <path class="cls-1" d="m242 282.59a0.84 0.84 0 0 1-0.83 0.84h-12.85a0.84 0.84 0 0 1-0.83-0.84v-12.85a0.83 0.83 0 0 1 0.83-0.84h12.86a0.83 0.83 0 0 1 0.83 0.84z" fill="#ffffff"/>
   <path class="cls-1" d="m236.57 348.54v7.07a0.81 0.81 0 0 0 0.24 0.59 0.85 0.85 0 0 0 0.6 0.25h12.85a0.83 0.83 0 0 0 0.59-0.25 0.78 0.78 0 0 0 0.25-0.59v-7.07z" fill="#ffffff"/>
   <path class="cls-1" d="m251.1 347.59v-7.07a0.81 0.81 0 0 0-0.25-0.59 0.87 0.87 0 0 0-0.59-0.25h-12.85a0.89 0.89 0 0 0-0.6 0.25 0.84 0.84 0 0 0-0.24 0.59v7.07z" fill="#ffffff"/>
   <path class="cls-1" d="m255 286.6a0.82 0.82 0 0 0-0.59 0.24 0.78 0.78 0 0 0-0.24 0.59v12.85a0.81 0.81 0 0 0 0.24 0.6 0.87 0.87 0 0 0 0.59 0.25h3.35v16.87a0.84 0.84 0 0 0 0.84 0.84h8.66a0.84 0.84 0 0 0 0.85-0.84v-30.57a0.83 0.83 0 0 0-0.25-0.59 0.82 0.82 0 0 0-0.6-0.24z" fill="#ffffff"/>
  </g>
 </g>
</svg>
